/* XPM */
static char *e5dab99fddcf4a82c156823de63cdb556lanSe8yip51Xy5m[] = {
/* columns rows colors chars-per-pixel */
"32 32 8 1 ",
"  c None",
". c #322C43",
"X c #B5422D",
"o c #E87838",
"O c #A36F4E",
"+ c #F0B989",
"@ c #FFC79F",
"# c white",
/* pixels */
"@@@@@@@@@@@@@@@@@@@@@@@@@@@@@@@@",
"@@@@@@@@@@@@@@@@@@@@@@@@@@@@@@@@",
"@@@@@.....@@@@@@@@@@@@@@@@@@@@@@",
"@@@..+++..@@@@@@@@@@@@@@@@@@@@@@",
"@@@..+++..@@@@@@@@@@@@@@@@@@@@@@",
"@@.OO+++..@@@....@@@@@@@...@@@@@",
"@@.OO+++..@..OOO.@@@@@@@.OO.@@@@",
"@@.OO+++..@..OOO.@@@@@@@.OO.@@@@",
"...OO+++..@..OXX.@@@@@@@.OO+..@@",
"..O+++++...OOOXX.........++X..@@",
"..O+++++...OOOXX.........++X..@@",
"..O++X++...++OXXXoooooooXXXX..@@",
"..O++X++...++OXXXoooooooXXXX..@@",
"..OOOXXXXX.++XXXXXXXXooooXXX..@@",
"..OXXXXXXX.XXXXXXXXXXXoooXXX..@@",
"..OXXXXXXX.XXXXXXXXXXXoooXXX..@@",
"@@.XXXXXXX.XXXXXXXX...XXXXX...@@",
"@@@..XXXXX.XXXXXXXX##...XXX...@@",
"@@@..XXXXX.XXXXXXXX##...XXX...@@",
"@@.XXXXXXXXXXXXXXXX##...XXX...@@",
"@@.XXXXXXXXXXX+++++#####X......@",
"@@.XXXXXXXXXXX+++++#####X......@",
"@@.XXXXXXXXXXX++++++++XXX......@",
"@@@..XXX..XXXX++++++++++++++..@@",
"@@@..XXX..XXXX++++++++++++++..@@",
"@@@..XXX..XXXXOOO++++++++++...@@",
"@@@..XXX..XXXXOOO++++++++++...@@",
"@@@.......XXX.XXOOOOOOOOO..@@@@@",
"@@..........................@@@@",
"@@..........................@@@@",
"@@......@@...........@......@@@@",
"@@@@@@@@@@@@@@@@@@@@@@@@@@@@@@@@"
};
